<svg xmlns="http://www.w3.org/2000/svg" xmlns:xlink="http://www.w3.org/1999/xlink" width="57" height="61" viewBox="0 0 57 61"><defs><path id="qxi5a" d="M987.87 4036.391l-4.38 10.969c-.143.356-.46.611-.838.674-.272.046-6.7 1.112-10.038 1.112-1.045 0-2.476.422-4.287.955-3.345.985-7.926 2.336-14.334 2.336-5.561 0-11.428-4.099-15.37-7.537a54.29 54.29 0 0 1-5.33-5.338c-2.302-2.674-2.302-3.262-2.302-3.578 0-1.012.86-2.194 3.286-2.194.27 0 .532.1.733.282a24.33 24.33 0 0 0 3.682 2.735c.138-.65 1.404-6.115 5.097-7.348l3.04-1.015 2.008-2.01c1.27-1.272 5.042-.788 7.333-.345l1.11-.245v-12.771a14.941 14.941 0 0 1-13.65-4.085 14.994 14.994 0 0 1-3.7-15.138c.107-.342.374-.61.715-.717a14.945 14.945 0 0 1 15.117 3.704 14.987 14.987 0 0 1 4.279 8.733 12.368 12.368 0 0 1 13.882-4.707c.342.107.609.375.716.716a12.408 12.408 0 0 1-3.061 12.528 12.368 12.368 0 0 1-11.97 3.221c-.046.006-.092.01-.138.01v8.03c3.097-.666 6.901-1.45 7.667-1.45.635 0 1.818 0 5.388 8.344.016.036.024.072.035.11 8.098 1.12 14.452 2.524 14.531 2.541a1.096 1.096 0 0 1 .78 1.478zm-27.891-23.173c.895-1.328 2.103-2.802 3.382-3.442a1.097 1.097 0 0 1 .98 1.962c-1.024.512-2.274 2.207-3.163 3.682a10.175 10.175 0 0 0 8.85-2.864 10.216 10.216 0 0 0 2.68-9.76c-3.49-.889-7.179.113-9.746 2.683a10.21 10.21 0 0 0-2.983 7.739zm-7.993-9.65a1.094 1.094 0 0 1 1.52-.304c2.398 1.6 3.726 4.192 4.36 5.8a12.793 12.793 0 0 0-3.652-10.675 12.761 12.761 0 0 0-12.356-3.325 12.8 12.8 0 0 0 3.32 12.372 12.748 12.748 0 0 0 11.042 3.597l-.003-.009c-.016-.063-1.054-4.017-3.927-5.935a1.098 1.098 0 0 1-.304-1.522zm-11.433 34.26c3.895 1.925 7.8 2.608 10.797 2.798 5.318.334 9.01-.732 9.57-1.066.246-.265.361-.621.27-.842-.104-.249-.616-.54-1.72-.54-7.754 0-10.974-.546-11.88-2.016-.329-.532-.348-1.175-.053-1.766 1.47-2.943 7.733-3.884 18.614-2.794 1.314.132 2.614.28 3.885.438-1.152-2.565-2.515-5.203-3.15-5.904-1.276.168-6.11 1.175-10.465 2.144a1.098 1.098 0 0 1-.452.005c-2.407-.481-5.062-.614-5.6-.282l-2.173 2.176c-.12.12-.267.21-.429.265l-3.286 1.096c-2.2.736-3.383 4.404-3.653 5.756-.042.207-.14.387-.275.531zm44.8-1.04c-2.996-.617-10.917-2.152-19.42-3.003-12.586-1.26-15.576.566-16.27 1.353.723.37 2.983.846 9.807.846 2.575 0 3.45 1.187 3.743 1.894.436 1.053.123 2.367-.778 3.269-1.008 1.009-5.852 1.946-10.826 1.69-4.815-.247-11.757-1.64-17.718-6.828a3.634 3.634 0 0 0-.524.1c.772 1.154 3.343 4.283 7.12 7.503 3.547 3.025 8.77 6.63 13.506 6.63 6.092 0 10.498-1.297 13.716-2.246 1.98-.583 3.544-1.044 4.905-1.044 2.587 0 7.383-.718 9.072-.984z"/></defs><g><g transform="translate(-931 -3992)"><use fill="#7fcdc7" xlink:href="#qxi5a"/></g></g></svg>