<svg xmlns="http://www.w3.org/2000/svg" xmlns:xlink="http://www.w3.org/1999/xlink" width="26" height="24" viewBox="0 0 26 24"><defs><path id="qfz5a" d="M163.186 63.717c0 1.259-1.003 2.282-2.235 2.282-1.233 0-2.235-1.023-2.235-2.282 0-1.257 1.002-2.28 2.235-2.28 1.232 0 2.235 1.023 2.235 2.28zm-1.248 0a.999.999 0 0 0-.987-1.007.999.999 0 0 0-.987 1.007.999.999 0 0 0 .987 1.008.998.998 0 0 0 .987-1.008zm9.088 0c0 1.259-1.002 2.282-2.235 2.282-1.232 0-2.235-1.023-2.235-2.282 0-1.257 1.003-2.28 2.235-2.28 1.233 0 2.235 1.023 2.235 2.28zm-1.247 0a.999.999 0 0 0-.988-1.007.999.999 0 0 0-.987 1.007.999.999 0 0 0 .987 1.008.998.998 0 0 0 .988-1.008zm.187-13.652a.63.63 0 0 1-.624.636h-8.943a.63.63 0 0 1-.624-.636.63.63 0 0 1 .624-.637h8.943a.63.63 0 0 1 .624.637zm-.487 3.307a.63.63 0 0 1-.624.636h-7.97a.63.63 0 0 1-.623-.636.63.63 0 0 1 .624-.637h7.969a.63.63 0 0 1 .624.637zm6.205-5.72l-1.746 8.645a1.26 1.26 0 0 1-1.222 1.017h-15.433l.367 1.82h14.95a.63.63 0 0 1 .624.636.63.63 0 0 1-.624.637h-14.95c-.589 0-1.103-.427-1.222-1.017l-3.02-14.956-2.738-1.213a.642.642 0 0 1-.324-.838.62.62 0 0 1 .82-.33l2.74 1.213c.372.165.643.505.725.911l.392 1.944h19.438c.377 0 .73.172.968.47s.33.685.255 1.061zm-1.223-.257h-19.18l1.745 8.646h15.69z"/></defs><g><g transform="translate(-150 -42)"><use fill="#121920" xlink:href="#qfz5a"/></g></g></svg>