<svg xmlns="http://www.w3.org/2000/svg" xmlns:xlink="http://www.w3.org/1999/xlink" width="51" height="50" viewBox="0 0 51 50"><defs><path id="a3fxa" d="M636.691 6607h-23.153c-7.475 0-13.538 6.035-13.538 13.476v23.048c0 7.442 6.063 13.477 13.538 13.477h11.948v-18.186h-3.567v-6.062h3.567v-5.052c0-.915-.13-7.072 7.764-7.072h5.552v6.418h-4.066c-.808 0-1.64.832-1.64 1.463v4.243h5.742c-.226 3.21-.702 6.062-.702 6.062h-5.04v18.186h3.595c7.476 0 13.539-6.035 13.539-13.477v-23.048c0-7.441-6.063-13.477-13.539-13.477z"/></defs><g><g transform="translate(-600 -6607)"><use fill="#fff" xlink:href="#a3fxa"/></g></g></svg>