<svg xmlns="http://www.w3.org/2000/svg" xmlns:xlink="http://www.w3.org/1999/xlink" width="51" height="50" viewBox="0 0 51 50"><defs><path id="99mfa" d="M814.76 6631.502a1.859 1.859 0 0 1-1.864 1.855c-1.03 0-1.864-.83-1.864-1.855a1.86 1.86 0 0 1 1.864-1.856c1.03 0 1.864.83 1.864 1.856zm23.251-11.026v23.048c0 7.442-6.063 13.477-13.538 13.477H801.32c-7.476 0-13.539-6.035-13.539-13.477v-23.048c0-7.441 6.063-13.477 13.539-13.477h23.153c7.475 0 13.538 6.036 13.538 13.477zm-13.44 17.804v-12.14c0-3.535-2.482-5.762-4.768-5.762h-13.401c-3.09 0-5.18 2.403-5.18 5.91v12.06c0 3.37 2.129 5.274 5.808 5.274h12.322c2.923 0 5.219-2.335 5.219-5.342zm-.981-9.6v9.59c0 2.51-1.815 4.375-4.228 4.375H807.03c-2.198 0-4.827-.732-4.827-4.307v-9.658h5.506c-.464.879-.728 1.8-.728 2.827 0 3.252 2.658 5.884 5.915 5.884s5.916-2.637 5.916-5.89a5.84 5.84 0 0 0-.723-2.821zm-5.75 2.822c0 2.715-2.216 4.922-4.944 4.922-2.727 0-4.944-2.197-4.944-4.912s2.217-4.922 4.944-4.922c2.728 0 4.945 2.197 4.945 4.912zm-1.216.01a3.718 3.718 0 0 0-3.728-3.711 3.718 3.718 0 0 0-3.728 3.71 3.718 3.718 0 0 0 3.728 3.712c2.06 0 3.728-1.66 3.728-3.711zm6.966-5.372v1.465h-6.235c-1.084-1.171-2.689-2.007-4.468-2.007a5.936 5.936 0 0 0-4.503 2.076v.03h-6.181v-1.427c0-1.29.392-2.704 1.275-3.678v3.62a.491.491 0 0 0 .981.01v-4.356c0-.013-.037-.025-.038-.037.204-.108.43-.199.627-.27v4.652a.491.491 0 0 0 .981 0v-4.716c0-.037.02-.086.012-.12.11-.007.246-.026.36-.026h.35c-.009.097-.035.105-.035.146v4.716a.491.491 0 0 0 .98 0v-4.716c0-.041.014-.049.005-.146h12.102c1.825 0 3.787 1.845 3.787 4.784zm-2.257-2.353c0-.588-.478-1.064-1.069-1.064h-1.59c-.59 0-1.069.476-1.069 1.064v1.582c0 .588.48 1.065 1.07 1.065h1.589c.59 0 1.07-.477 1.07-1.065z"/></defs><g><g transform="translate(-787 -6607)"><use fill="#fff" xlink:href="#99mfa"/></g></g></svg>