<svg xmlns="http://www.w3.org/2000/svg" xmlns:xlink="http://www.w3.org/1999/xlink" width="40" height="40" viewBox="0 0 40 40"><defs><path id="w79ga" d="M433 6859c-1.84 0-3.614-.24-5.32-.72a20.3 20.3 0 0 1-4.78-2.02 19.94 19.94 0 0 1-4.041-3.12 19.922 19.922 0 0 1-3.12-4.04 20.29 20.29 0 0 1-2.02-4.78c-.48-1.707-.72-3.481-.72-5.32 0-1.84.24-3.614.72-5.32.48-1.708 1.153-3.301 2.02-4.781a19.948 19.948 0 0 1 3.12-4.04 19.952 19.952 0 0 1 4.04-3.12 20.284 20.284 0 0 1 4.78-2.021 19.57 19.57 0 0 1 5.32-.72c2.748 0 5.341.527 7.781 1.58 2.44 1.054 4.56 2.48 6.36 4.28 1.8 1.8 3.228 3.921 4.281 6.36 1.054 2.441 1.58 5.035 1.58 7.782 0 1.839-.24 3.613-.72 5.32a20.297 20.297 0 0 1-2.02 4.78 19.93 19.93 0 0 1-3.12 4.04 19.935 19.935 0 0 1-4.04 3.12 20.304 20.304 0 0 1-4.78 2.02c-1.707.48-3.48.72-5.321.72zm9.64-28.241h-18.96a.693.693 0 0 0-.48.18c-.134.12-.2.287-.2.5v2.12c0 .107.04.16.12.16l9.96 5.68.08.04c.053 0 .093-.013.12-.04l9.64-5.68a.305.305 0 0 1 .12-.04.309.309 0 0 0 .12-.04c.107 0 .16-.053.16-.16v-2.04c0-.213-.066-.38-.2-.5a.693.693 0 0 0-.48-.18zm-13.6 8.52c.026-.026.04-.067.04-.12 0-.08-.027-.12-.08-.12l-5.72-3.28c-.08-.027-.147-.027-.2 0-.054 0-.08.04-.08.12v8.6c0 .08.04.134.12.16h.08c.053 0 .08-.013.08-.04zm6.96.64c-.027-.08-.093-.093-.2-.04l-2.2 1.28c-.267.16-.547.16-.84 0l-1.92-1.08c-.08-.053-.147-.053-.2 0l-7.32 6.8c-.027.027-.04.081-.04.16 0 .027.026.068.08.12.16.055.266.081.32.081h18.76c.054 0 .107-.026.16-.08 0-.107-.013-.173-.04-.2zm7.2-4.32h-.16l-5.44 3.24c-.053 0-.08.04-.08.12-.026.027-.013.067.04.12l5.44 5.88c.054.054.094.081.12.081h.08c.08-.08.12-.134.12-.16v-9.12c0-.054-.04-.107-.12-.16z"/></defs><g><g transform="translate(-413 -6819)"><use fill="#eff7f7" xlink:href="#w79ga"/></g></g></svg>