<svg xmlns="http://www.w3.org/2000/svg" xmlns:xlink="http://www.w3.org/1999/xlink" width="51" height="61" viewBox="0 0 51 61"><defs><path id="cccea" d="M510.839 4000.68c.055.46.091.936.091 1.444v34.204c0 2.984-2.443 5.412-5.447 5.412h-17.595a5.262 5.262 0 0 1-2.008-.406 5.422 5.422 0 0 1-2.05.406h-17.593c-3.004 0-5.449-2.427-5.449-5.41v-27.103c-.001-.035-.002-.07 0-.105v-6.998c0-5.326 3.216-7.967 5.564-9.894.28-.232.553-.456.812-.675a2.05 2.05 0 0 0 .207-.208c.225-.264.318-.583.273-.947-.063-.509-.396-1.034-.87-1.372-.005-.004-.009-.01-.013-.012a3.458 3.458 0 0 1-.54-.49c-.035-.04-.066-.082-.1-.122a3.411 3.411 0 0 1-.334-.492c-.031-.055-.062-.107-.09-.163a3.235 3.235 0 0 1-.206-.55c-.017-.056-.038-.11-.052-.166a3.365 3.365 0 0 1-.092-.755v-1.132c0-1.872 1.533-3.396 3.418-3.396h12.536c1.885 0 3.42 1.524 3.42 3.396v1.132c0 .257-.036.506-.09.747-.012.054-.035.105-.05.158-.052.189-.116.37-.2.542-.028.062-.063.12-.096.178a3.416 3.416 0 0 1-.439.62c-.12.134-.25.255-.39.37-.037.031-.066.071-.106.1-.483.36-.787.91-.812 1.465-.014.297.051.722.436 1.07l.023.02c.26.225.534.455.817.69.654.547 1.377 1.155 2.076 1.861.716-.71 1.46-1.327 2.14-1.888.272-.223.536-.442.788-.656.073-.064.144-.135.206-.208.226-.264.318-.583.274-.947-.063-.509-.397-1.034-.87-1.372-.005-.004-.009-.01-.013-.012a3.458 3.458 0 0 1-.54-.49c-.035-.04-.067-.082-.1-.122a3.512 3.512 0 0 1-.335-.492c-.03-.055-.061-.107-.089-.163a3.393 3.393 0 0 1-.207-.55c-.017-.056-.039-.11-.052-.166a3.365 3.365 0 0 1-.093-.755v-1.132c0-1.872 1.534-3.396 3.42-3.396h12.535c1.885 0 3.419 1.524 3.419 3.396v1.132c0 .257-.036.506-.09.747-.012.054-.034.105-.05.158-.052.189-.115.37-.199.542-.028.062-.064.12-.097.178a3.424 3.424 0 0 1-.438.62c-.12.134-.251.255-.39.37-.038.031-.066.071-.106.1-.483.36-.787.908-.813 1.465-.014.295.05.722.437 1.07l.022.02c.26.225.533.454.816.69 1.896 1.583 4.364 3.651 5.185 7.29.07.083.142.163.188.268.126.294.116.61.001.884zm-2.197 8.235h-10.257v19.242h10.257v-2.264h-3.42c-.628 0-1.139-.505-1.139-1.131s.51-1.132 1.14-1.132h3.419v-2.264h-5.698c-.63 0-1.14-.506-1.14-1.132 0-.626.51-1.132 1.14-1.132h5.698v-5.66h-3.42c-.628 0-1.139-.505-1.139-1.131s.51-1.132 1.14-1.132h3.419zm-19.363-22.637c0 .138.034.268.08.39.01.026.018.054.029.079.049.105.115.197.193.283.034.037.074.07.113.103.199.166.445.277.724.277h12.536a1.145 1.145 0 0 0 .955-.55c.023-.038.054-.068.072-.107.07-.146.113-.308.113-.475v-1.132c0-.625-.512-1.132-1.14-1.132h-12.536c-.628 0-1.14.507-1.14 1.132zm-1.915 9.57c.303.433.582.9.83 1.402.008.013.013.027.019.039a9.6 9.6 0 0 1 .163.356c2.99-.24 5.534.677 7.99 1.575 1.128.413 2.295.841 3.484 1.142 2.634.665 5.348.426 8.454-.744-.745-2.645-2.607-4.227-4.307-5.648-.294-.247-.581-.485-.853-.722l-.03-.028a3.565 3.565 0 0 1-1.202-2.866c.01-.231.062-.456.112-.68H491.45c.037.15.09.298.109.45a3.44 3.44 0 0 1-.8 2.69c-.137.16-.287.31-.452.454-.265.226-.54.452-.824.685-.715.587-1.449 1.192-2.125 1.881l.006.013zm-19.738-9.57c0 .138.034.268.08.39.01.026.018.054.03.079.048.105.114.197.192.283.034.037.074.07.114.103.198.166.444.277.723.277h12.536a1.145 1.145 0 0 0 .955-.55c.023-.038.054-.068.072-.107.07-.146.113-.308.113-.475v-1.132c0-.625-.512-1.132-1.14-1.132h-12.536c-.627 0-1.14.507-1.14 1.132zm-4.559 15.846v6.287c4.379 1.736 7.25 1.723 11.376-.025 4.213-1.784 7.878-2.573 12.556-1.025v-5.236c0-.526-.04-1.017-.11-1.48l-.002-.028a8.251 8.251 0 0 0-.294-1.25l-.03-.099a7.865 7.865 0 0 0-.518-1.212 8.86 8.86 0 0 0-.53-.883c-.012-.018-.022-.036-.035-.054-.889-1.271-2.048-2.24-3.135-3.148-.295-.246-.582-.486-.853-.723l-.031-.027a3.564 3.564 0 0 1-1.201-2.866c.01-.23.06-.456.111-.681h-10.574c.037.15.09.298.11.45a3.441 3.441 0 0 1-.8 2.69c-.137.16-.288.31-.453.454-.273.233-.557.466-.85.706-2.22 1.823-4.737 3.89-4.737 8.15zm3.169 37.352h17.594c.422 0 .824-.086 1.193-.236l.294-.159c.518-.279.938-.681 1.229-1.157l.003-.005a3.16 3.16 0 0 0 .299-.681c.013-.044.03-.088.042-.135.067-.25.11-.51.11-.776v-26.555c-3.89-1.491-6.944-1.305-11.663.694-2.394 1.014-4.447 1.524-6.537 1.524-1.799 0-3.638-.397-5.733-1.156v25.496c0 1.735 1.421 3.146 3.169 3.146zm42.416-3.15v-5.906h-12.546v-23.77h12.544v-4.527c0-.078-.015-.144-.016-.22-2.045.721-3.964 1.095-5.816 1.095-1.195 0-2.366-.15-3.532-.445-1.304-.33-2.527-.776-3.71-1.21-2.165-.793-4.224-1.53-6.513-1.467.03.157.062.314.086.476.007.05.01.1.017.149.068.514.111 1.05.111 1.623v34.21c0 .328-.038.65-.098.967-.022.126-.059.247-.09.37a5.605 5.605 0 0 1-.352.968c-.057.117-.122.228-.187.34-.097.17-.192.34-.306.497h17.239c1.747 0 3.17-1.413 3.17-3.15z"/></defs><g><g transform="translate(-460 -3981)"><use fill="#7fcdc7" xlink:href="#cccea"/></g></g></svg>