<svg xmlns="http://www.w3.org/2000/svg" xmlns:xlink="http://www.w3.org/1999/xlink" width="61" height="54" viewBox="0 0 61 54"><defs><path id="f19la" d="M475.861 3902.322c-.6 8.974-6.242 13.479-14.525 17.483a4.741 4.741 0 0 0-2.151 2.096c-.451.883-.38 2.023.187 2.976.444.749.457 1.628.042 2.37a2.275 2.275 0 0 1-2.007 1.186h-23.102a2.274 2.274 0 0 1-2.007-1.185 2.331 2.331 0 0 1 .032-2.353c.577-.97.649-2.111.197-2.995a4.75 4.75 0 0 0-2.151-2.095c-8.285-4.004-13.925-8.51-14.525-17.484a2.48 2.48 0 0 1 .647-1.844 2.395 2.395 0 0 1 1.753-.771h.953a2.819 2.819 0 0 1-.56-1.66c0-.912.44-1.771 1.177-2.297l.358-.256c.296-.21.4-.604.248-.936l-.183-.4a2.843 2.843 0 0 1 .115-2.587 2.776 2.776 0 0 1 2.153-1.392l.436-.04a.751.751 0 0 0 .677-.686l.04-.441a2.81 2.81 0 0 1 1.375-2.178c.78-.456 1.735-.5 2.553-.117l.398.187a.613.613 0 0 0 .298.053c.118-.312.262-.615.457-.895l5.839-8.387a4.028 4.028 0 0 1 5.65-.991 4.079 4.079 0 0 1 1.655 2.654 4.112 4.112 0 0 1-.676 3.065l-3.19 4.581a2.746 2.746 0 0 1 1.184 2.028l.04.44c.024.274.19.504.422.616.09-.236.16-.456.174-.615l.04-.441a2.813 2.813 0 0 1 1.376-2.18 2.745 2.745 0 0 1 2.553-.115l.398.187a.743.743 0 0 0 .924-.251l.253-.363a2.766 2.766 0 0 1 2.267-1.19c.217 0 .43.028.637.078.09-5.58 4.595-10.093 10.129-10.093s10.041 4.516 10.127 10.097c3.672 1.62 6.09 5.304 6.09 9.396a10.3 10.3 0 0 1-1.375 5.13h.197c.66 0 1.3.28 1.752.771.457.495.694 1.166.65 1.844zm-7.505-14.956a10.307 10.307 0 0 1-.445 1.544l-.05.137c-.081.212-.17.418-.263.622l-.106.222c-.091.185-.185.369-.288.549-.048.086-.101.169-.152.253-.101.166-.203.334-.313.494-.062.091-.13.175-.194.262-.181.247-.372.484-.573.713-.107.121-.211.244-.324.36-.098.1-.201.196-.304.293-.12.113-.238.225-.363.333-.104.09-.212.175-.32.262a10.657 10.657 0 0 1-.733.533c-.15.1-.304.192-.46.283-.105.063-.21.126-.318.185-.194.105-.394.199-.594.29-.076.035-.148.074-.226.107-.276.118-.56.221-.848.315-.091.03-.184.051-.277.078a9.39 9.39 0 0 1-.624.163c-.115.025-.231.045-.347.067a10.377 10.377 0 0 1-.957.128c-.08.007-.158.02-.239.025l.233.167a2.817 2.817 0 0 1 1.176 2.294 2.849 2.849 0 0 1-.105.74c-.052.19-.116.377-.205.552l-.01.015a2.798 2.798 0 0 1-.217.355h3.58v-4.104a1.02 1.02 0 0 1 1.013-1.026c.56 0 1.013.459 1.013 1.026v4.104h5.304a8.24 8.24 0 0 0 1.792-5.13 8.226 8.226 0 0 0-4.256-7.21zm-18.045-2.023c0 .497.05 1.01.148 1.53a.738.738 0 0 0 .31.09l.017.001a.678.678 0 0 0 .318-.06l.395-.187c.196-.091.399-.155.605-.198.071-.014.143-.014.215-.023.116-.016.23-.038.347-.038.02 0 .038.008.058.008.154.003.304.03.456.06.076.015.152.017.227.039.223.063.44.15.646.27.306.179.557.425.771.699l1.447-1.464a1.004 1.004 0 0 1 1.433 0c.396.401.396 1.05 0 1.45l-2.166 2.192a.747.747 0 0 0 .607.428l.437.04a2.775 2.775 0 0 1 2.153 1.392c.102.179.176.368.236.561.018.057.03.114.044.172.034.143.058.288.07.436.006.06.013.119.014.18.004.187-.007.375-.04.56-.003.014-.003.026-.005.04.027-.001.053-.001.078-.004.132-.012.262-.031.393-.05.127-.019.256-.033.383-.057.122-.024.242-.055.363-.083.13-.031.262-.06.39-.098.112-.033.221-.072.331-.11.132-.044.264-.089.393-.139.102-.04.201-.087.302-.132.13-.059.262-.118.39-.183.091-.047.18-.1.27-.15.13-.074.261-.147.388-.228.081-.051.158-.107.236-.161.13-.09.259-.18.383-.277.068-.052.133-.108.199-.164a8.5 8.5 0 0 0 .378-.33c.055-.053.107-.106.16-.16.127-.126.253-.255.371-.39.04-.046.08-.095.119-.142.126-.148.248-.3.363-.458l.078-.113c.122-.174.24-.353.349-.536l.041-.073c.117-.203.226-.408.325-.62l.013-.028c.43-.924.695-1.943.755-3.021 0-.004.003-.011.003-.011.009-.152.022-.305.022-.46 0-4.525-3.638-8.207-8.11-8.207-4.472 0-8.109 3.682-8.109 8.207zm-8.673 5.288c.046.03.078.075.122.108a2.7 2.7 0 0 1 .408.366c.059.067.106.142.158.214.064.086.137.163.19.256.03.051.042.108.068.16.019.038.05.068.067.108.028.066.04.137.065.205.028.082.056.162.078.246.032.13.05.26.063.393.008.077.02.153.023.23.003.148-.012.294-.033.442-.008.063-.008.125-.021.188-.043.21-.104.415-.195.613l-.185.403a.76.76 0 0 0 .247.934l.359.256c.293.21.523.481.714.777.168.263.309.543.383.849.023.092.021.19.034.284.018.129.046.253.046.385v.002c-.001.202-.03.4-.072.594a2.868 2.868 0 0 1-.24.694l-.008.014a2.944 2.944 0 0 1-.218.356h13.315c.019-.031.045-.057.065-.087a2.79 2.79 0 0 1 .174-.225c.041-.05.08-.102.124-.148a2.77 2.77 0 0 1 .365-.32l.01-.008.36-.257a.75.75 0 0 0 .317-.618.758.758 0 0 0-.317-.62l-.36-.257a2.616 2.616 0 0 1-.335-.288c-.055-.053-.102-.112-.152-.17-.039-.046-.078-.09-.114-.139a2.701 2.701 0 0 1-.178-.27l-.018-.03a2.83 2.83 0 0 1-.142-2.522c.007-.018.01-.035.018-.053l.187-.406a.752.752 0 0 0-.032-.695.734.734 0 0 0-.58-.376l-.437-.04c-1.335-.12-2.392-1.192-2.514-2.544l-.04-.44a.748.748 0 0 0-1.056-.619l-.397.187c-.14.066-.284.116-.43.156-.082.023-.164.034-.247.05-.058.01-.114.023-.172.029a2.709 2.709 0 0 1-.37.014h-.029a2.756 2.756 0 0 1-2.186-1.178l-.252-.364c-.283-.405-.938-.408-1.223.001l-.252.364a2.758 2.758 0 0 1-3.433.931l-.4-.188a.727.727 0 0 0-.686.03.746.746 0 0 0-.371.588l-.04.442c-.03.338-.12.68-.225.993zm-11.235-3.386c-.16.23-.266.487-.322.756a2.076 2.076 0 0 0-.033.529l.01.132c.02.175.055.346.117.508l.014.029a2.084 2.084 0 0 0 .323.536c.11.133.232.26.377.363.002 0 .003.003.005.004.44.315.98.432 1.513.342.536-.094 1-.391 1.311-.838l1.884-2.705.002-.001 3.954-5.68c.31-.444.429-.99.336-1.531a2.042 2.042 0 0 0-.826-1.328 2.015 2.015 0 0 0-2.825.496zm-8.317 12.462h18.7c.01-.017.026-.031.037-.047.066-.1.14-.193.217-.283.033-.039.063-.082.1-.12.117-.123.245-.237.383-.337l.347-.246.013-.01c.072-.05.119-.121.168-.191.02-.029.052-.048.068-.078a.754.754 0 0 0 .083-.35.763.763 0 0 0-.319-.622l-.112-.08-.247-.175a2.797 2.797 0 0 1-1.161-2.02c0-.008-.002-.014-.003-.02a2.826 2.826 0 0 1 .245-1.436l.186-.404a.754.754 0 0 0 .066-.34l.001-.015a.763.763 0 0 0-.088-.302c-.02-.04-.05-.072-.076-.107a.743.743 0 0 0-.14-.15c-.036-.027-.076-.046-.115-.066a.742.742 0 0 0-.26-.089l-.436-.04a2.792 2.792 0 0 1-2.514-2.544l-.04-.44a.725.725 0 0 0-.322-.55l-1.49 2.141a4.03 4.03 0 0 1-3.328 1.738c-.017 0-.033-.004-.05-.004-.066-.001-.13-.011-.196-.015a4.08 4.08 0 0 1-.52-.065 3.814 3.814 0 0 1-.718-.216c-.07-.027-.14-.053-.21-.084a4.125 4.125 0 0 1-.629-.363 4.07 4.07 0 0 1-.62-.546c-.054-.06-.095-.128-.146-.19-.122-.148-.244-.296-.343-.458-.057-.093-.094-.193-.143-.289-.072-.144-.149-.285-.205-.436-.046-.13-.073-.264-.107-.396-.03-.113-.072-.222-.092-.339-.003-.017-.001-.036-.004-.054-.004-.022-.014-.044-.017-.065a2.644 2.644 0 0 1-.909-.239l-.4-.188a.733.733 0 0 0-.687.031.749.749 0 0 0-.37.587l-.04.443a2.79 2.79 0 0 1-2.514 2.542l-.435.04a.757.757 0 0 0-.611 1.072l.183.401a2.827 2.827 0 0 1-.921 3.477l-.357.255a.752.752 0 0 0-.317.62c0 .25.115.475.317.618l.359.256c.295.21.545.48.739.788zm51.752 2.477a.407.407 0 0 0-.106-.306.365.365 0 0 0-.271-.12h-55.209a.36.36 0 0 0-.272.12.413.413 0 0 0-.106.306c.535 8.007 5.514 11.97 13.376 15.768a6.787 6.787 0 0 1 3.077 3.004c.774 1.513.677 3.42-.25 4.979-.08.135-.05.238-.014.302a.265.265 0 0 0 .242.144h23.1a.265.265 0 0 0 .242-.144.27.27 0 0 0-.003-.284c-.938-1.576-1.034-3.482-.26-4.995a6.796 6.796 0 0 1 3.078-3.005c7.86-3.8 12.84-7.762 13.376-15.77zm-19.472 18.041a1.02 1.02 0 0 1-1.014 1.026h-8.826a1.02 1.02 0 0 1-1.014-1.026 1.02 1.02 0 0 1 1.014-1.025h8.826c.56 0 1.014.458 1.014 1.025zm-17.233 0a1.02 1.02 0 0 1 1.014-1.025h3.432c.56 0 1.014.458 1.014 1.025a1.02 1.02 0 0 1-1.014 1.026h-3.432c-.56 0-1.014-.458-1.014-1.026zm17.233 3.078a1.02 1.02 0 0 1-1.014 1.026h-15.205a1.02 1.02 0 0 1-1.014-1.026 1.02 1.02 0 0 1 1.014-1.026h15.205c.56 0 1.014.459 1.014 1.026zm-.963-41.586a1.034 1.034 0 0 1 0-1.45c.396-.401 1.037-.401 1.433 0l2.868 2.9c.396.401.396 1.05 0 1.452a1.006 1.006 0 0 1-1.433 0zm5.733 5.803a1.034 1.034 0 0 1 0-1.45 1.004 1.004 0 0 1 1.434 0l2.867 2.9c.396.401.397 1.05 0 1.451a1.005 1.005 0 0 1-1.433 0zm.001-2.901a1.034 1.034 0 0 1 0-1.452l2.868-2.9c.396-.401 1.037-.401 1.433 0 .397.4.396 1.049 0 1.45l-2.867 2.901a1.006 1.006 0 0 1-1.434 0zm7.393 7.906h4.055c.56 0 1.014.459 1.014 1.026 0 .568-.453 1.026-1.014 1.026h-4.055c-.56 0-1.014-.458-1.014-1.026 0-.567.454-1.026 1.014-1.026zm-20.484 1.238a1.033 1.033 0 0 1 0-1.45l1.521-1.539a1.004 1.004 0 0 1 1.433 0c.397.401.397 1.05 0 1.45l-1.52 1.54a1.005 1.005 0 0 1-1.434 0zm4.562 1.54a1.034 1.034 0 0 1 0-1.451 1.004 1.004 0 0 1 1.433 0l1.014 1.026c.397.4.397 1.05 0 1.45a1.005 1.005 0 0 1-1.433 0zm-1.608.6c.397.401.397 1.05 0 1.451l-1.013 1.026a1.006 1.006 0 0 1-1.434 0 1.033 1.033 0 0 1 0-1.45l1.014-1.027a1.004 1.004 0 0 1 1.433 0z"/></defs><g><g transform="translate(-415 -3875)"><use fill="#7fcdc7" xlink:href="#f19la"/></g></g></svg>