<svg xmlns="http://www.w3.org/2000/svg" xmlns:xlink="http://www.w3.org/1999/xlink" width="58" height="60" viewBox="0 0 58 60"><defs><path id="4wjsa" d="M1000.744 3882.978a.971.971 0 0 1 1.32-.351l3.765 2.154c.462.264.62.85.354 1.308a.967.967 0 0 1-1.32.35l-3.765-2.153a.952.952 0 0 1-.354-1.308zm-9.554 6.976v4.308a.962.962 0 0 1-.967.958.962.962 0 0 1-.966-.958v-4.308c0-.528.433-.957.966-.957.534 0 .967.429.967.957zm14.993 8.173a.953.953 0 0 1-.354 1.308l-3.765 2.154a.97.97 0 0 1-1.32-.35.953.953 0 0 1 .354-1.308l3.765-2.154a.971.971 0 0 1 1.32.35zm21.794 8.504c0 1.935-1.59 3.51-3.543 3.51-1.954 0-3.543-1.575-3.543-3.51 0-.297.037-.585.108-.86l-6.79-3.885a3.547 3.547 0 0 1-2.467.994c-.958 0-1.828-.38-2.467-.994l-6.79 3.885c.07.275.108.563.108.86 0 1.603-1.091 2.959-2.576 3.376v11.146a.962.962 0 0 1-.967.957.962.962 0 0 1-.966-.957v-11.146c-1.485-.417-2.577-1.773-2.577-3.376 0-.297.038-.585.108-.86l-6.79-3.885a3.547 3.547 0 0 1-2.466.994c-.958 0-1.828-.38-2.467-.994l-6.79 3.885c.07.275.108.563.108.86 0 1.936-1.59 3.51-3.543 3.51s-3.543-1.574-3.543-3.51c0-1.936 1.59-3.512 3.543-3.512.958 0 1.828.38 2.467.995l6.79-3.885a3.477 3.477 0 0 1-.108-.86c0-1.604 1.091-2.959 2.576-3.377v-7.768c-1.485-.418-2.576-1.773-2.576-3.377 0-.296.037-.584.108-.86l-6.79-3.884a3.549 3.549 0 0 1-2.467.994c-1.954 0-3.543-1.575-3.543-3.511 0-1.936 1.59-3.51 3.543-3.51 1.954 0 3.543 1.574 3.543 3.51 0 .296-.038.584-.108.86l6.79 3.884a3.547 3.547 0 0 1 2.467-.994c.958 0 1.828.38 2.466.994l6.79-3.884a3.47 3.47 0 0 1-.108-.86c0-1.604 1.092-2.96 2.577-3.377v-11.145c0-.529.433-.958.966-.958.534 0 .967.43.967.958v11.145c1.485.418 2.576 1.773 2.576 3.377 0 .296-.037.585-.108.86l6.79 3.884a3.548 3.548 0 0 1 2.467-.994c.958 0 1.828.38 2.466.994l6.79-3.884a3.474 3.474 0 0 1-.108-.86c0-1.936 1.59-3.51 3.543-3.51 1.954 0 3.543 1.574 3.543 3.51 0 1.936-1.589 3.51-3.543 3.51-.958 0-1.828-.379-2.466-.993l-6.79 3.884c.07.276.108.563.108.86 0 1.604-1.092 2.959-2.577 3.377v7.768c1.485.418 2.577 1.773 2.577 3.377 0 .297-.038.585-.108.86l6.79 3.884a3.548 3.548 0 0 1 2.466-.994c1.954 0 3.544 1.575 3.544 3.512zm-5.154-29.045c0 .88.722 1.596 1.61 1.596.888 0 1.61-.716 1.61-1.596 0-.88-.722-1.596-1.61-1.596-.888 0-1.61.716-1.61 1.596zm-47.546 0c0-.88-.722-1.596-1.61-1.596-.889 0-1.61.716-1.61 1.596 0 .88.721 1.596 1.61 1.596.888 0 1.61-.716 1.61-1.596zm0 29.044c0-.88-.722-1.596-1.61-1.596-.889 0-1.61.716-1.61 1.596 0 .88.721 1.596 1.61 1.596.888 0 1.61-.716 1.61-1.596zm34.854-21.783c0 .88.723 1.596 1.61 1.596.889 0 1.611-.716 1.611-1.596 0-.88-.722-1.596-1.61-1.596-.888 0-1.61.716-1.61 1.596zm-12.692-7.261c0 .88.723 1.596 1.61 1.596.889 0 1.611-.716 1.611-1.596 0-.88-.722-1.596-1.61-1.596-.888 0-1.61.716-1.61 1.596zm-11.08 8.857c.887 0 1.61-.716 1.61-1.596 0-.88-.723-1.596-1.61-1.596-.889 0-1.611.716-1.611 1.596 0 .88.722 1.596 1.61 1.596zm1.61 12.926c0-.88-.723-1.596-1.61-1.596-.889 0-1.611.716-1.611 1.596 0 .88.722 1.596 1.61 1.596.888 0 1.61-.716 1.61-1.596zm12.691 7.261c0-.88-.722-1.596-1.61-1.596-.888 0-1.61.716-1.61 1.596 0 .88.722 1.596 1.61 1.596.888 0 1.61-.716 1.61-1.596zm10.115-10.638v-7.768c-1.485-.418-2.576-1.773-2.576-3.377 0-.297.037-.584.108-.86l-6.79-3.884a3.549 3.549 0 0 1-2.467.994c-.958 0-1.828-.38-2.467-.994l-6.79 3.884c.07.276.108.563.108.86 0 1.604-1.091 2.959-2.576 3.377v7.768c1.485.418 2.576 1.773 2.576 3.377 0 .297-.037.585-.107.86l6.79 3.884a3.548 3.548 0 0 1 2.466-.994c.958 0 1.828.38 2.467.994l6.79-3.884a3.477 3.477 0 0 1-.108-.86c0-1.604 1.091-2.96 2.576-3.377zm2.577 3.377c0-.88-.722-1.595-1.611-1.596-.888 0-1.61.716-1.61 1.596 0 .88.723 1.596 1.61 1.596.889 0 1.611-.716 1.611-1.596zm12.692 7.261c0-.88-.723-1.596-1.61-1.596-.889 0-1.611.716-1.611 1.596 0 .88.722 1.596 1.61 1.596.888 0 1.61-.716 1.61-1.596z"/></defs><g><g transform="translate(-970 -3862)"><use fill="#7fcdc7" xlink:href="#4wjsa"/></g></g></svg>