<svg xmlns="http://www.w3.org/2000/svg" xmlns:xlink="http://www.w3.org/1999/xlink" width="21" height="24" viewBox="0 0 21 24"><defs><path id="sbb2a" d="M1060.902 53.414c-1.92-2.157-1.6-5.854-1.565-6.208.124-2.668 1.4-3.935 2.447-4.527 1.042-.592 2.13-.681 2.683-.681h.084c1.007.02 1.91.259 2.682.701 1.037.591 2.294 1.86 2.418 4.507.035.354.354 4.051-1.565 6.208-.873.98-2.054 1.491-3.515 1.516h-.16c-1.46-.025-2.642-.537-3.509-1.516zm1.002-.89c.623.707 1.466 1.055 2.563 1.064h.049c1.102-.01 1.94-.357 2.568-1.064 1.585-1.779 1.236-5.158 1.231-5.193-.005-.01-.005-.025-.005-.04-.154-3.37-2.443-3.916-3.789-3.946h-.06c-1.086 0-3.624.383-3.788 3.946 0 .01-.005.025-.005.04-.005.03-.344 3.425 1.236 5.193zm12.593 10.786a.669.669 0 0 1-.26.313c-.149.094-3.733 2.376-9.73 2.376-5.998 0-9.583-2.276-9.732-2.376a.64.64 0 0 1-.26-.313c-.264-.666-.259-1.994-.254-2.251v-.016c.005-.04.005-.08.005-.124.03-.979.095-3.28 2.259-4.02a.832.832 0 0 1 .05-.016c2.258-.57 4.118-1.863 4.138-1.878a.674.674 0 0 1 .937.164.67.67 0 0 1-.165.934c-.084.055-2.069 1.436-4.551 2.073-1.162.412-1.292 1.65-1.326 2.783 0 .045-.005.084-.005.124-.01.448.024 1.138.104 1.536.813.457 3.998 2.043 8.794 2.043 4.816 0 7.982-1.58 8.79-2.038.08-.397.11-1.089.104-1.536-.005-.04-.005-.079-.005-.124-.034-1.133-.164-2.37-1.326-2.783-2.482-.637-4.467-2.013-4.551-2.073a.669.669 0 0 1-.165-.934.674.674 0 0 1 .937-.164c.02.015 1.89 1.307 4.138 1.879l.05.014c2.164.736 2.229 3.037 2.258 4.021 0 .045.005.085.005.125v.015c.005.258.01 1.585-.239 2.246z"/></defs><g><g transform="translate(-1054 -42)"><use fill="#121920" xlink:href="#sbb2a"/></g></g></svg>