<svg xmlns="http://www.w3.org/2000/svg" xmlns:xlink="http://www.w3.org/1999/xlink" width="30" height="30" viewBox="0 0 30 30"><defs><path id="fswra" d="M683 2408a.5.5 0 0 1-.218.412l-11 7.501a.502.502 0 0 1-.516.029.5.5 0 0 1-.266-.442v-15.001a.5.5 0 0 1 .781-.413l11.001 7.5a.5.5 0 0 1 .219.414zm-1.387 0l-9.613-6.555v13.108zm8.388 0c0 8.27-6.73 15-15.001 15-8.272 0-15.001-6.73-15.001-15 0-8.272 6.73-15.002 15-15.002 8.273 0 15.002 6.73 15.002 15.002zm-1 0c0-7.72-6.281-14.002-14.001-14.002s-14.001 6.281-14.001 14.001 6.28 14.001 14 14.001c7.721 0 14.002-6.28 14.002-14z"/></defs><g><g transform="translate(-660 -2393)"><use fill="#fff" xlink:href="#fswra"/></g></g></svg>