<svg xmlns="http://www.w3.org/2000/svg" xmlns:xlink="http://www.w3.org/1999/xlink" width="35" height="9" viewBox="0 0 35 9"><defs><path id="ec3pa" d="M345.14 1039.72c4.258-2.918 1.43-5.73 1.357-5.95-2.701-2.855-5.36.192-5.427.26-.9.066-.459-.742-.452-.777 2.557-2.82 6.313-.03 6.331 0 2.976 4.21-1.236 7.13-1.357 6.984-3.657 2.306-11.822-1.379-11.758-1.552l-.378-.165c-3.133-1.207-8.915-3.642-11.518-4.715-2.491-.775-3.938-.807-3.938-.807.07-.029.14-.056.21-.081-1.282.021-2.322.311-2.35.36-4.258 2.917-1.431 5.728-1.358 5.949 2.702 2.855 5.36-.193 5.428-.26.899-.066.458.742.452.776-2.557 2.821-6.313.032-6.332 0-2.975-4.208 1.236-7.13 1.357-6.983 3.657-2.307 11.822 1.378 11.759 1.552l.394.172c3.136 1.209 8.898 3.635 11.498 4.707 2.493.776 3.942.808 3.942.808a2.232 2.232 0 0 1-.116.08c1.238-.035 2.228-.312 2.256-.359z"/><clipPath id="ec3pb"><use fill="#fff" xlink:href="#ec3pa"/></clipPath></defs><g><g transform="translate(-313 -1032)"><use fill="#fff" xlink:href="#ec3pa"/><use fill="#fff" fill-opacity="0" stroke-dasharray="0 0" stroke-miterlimit="50" stroke-width="0" clip-path="url(&quot;#ec3pb&quot;)" xlink:href="#ec3pa"/></g></g></svg>