<svg xmlns="http://www.w3.org/2000/svg" xmlns:xlink="http://www.w3.org/1999/xlink" width="35" height="9" viewBox="0 0 35 9"><defs><path id="2dwga" d="M1026.14 289.72c4.257-2.918 1.43-5.73 1.357-5.95-2.701-2.855-5.36.192-5.427.26-.9.066-.459-.742-.452-.776 2.557-2.821 6.313-.031 6.331 0 2.976 4.208-1.236 7.13-1.357 6.983-3.657 2.306-11.822-1.378-11.758-1.552l-.382-.166c-3.134-1.208-8.91-3.64-11.512-4.714-2.492-.775-3.94-.807-3.94-.807a6.26 6.26 0 0 1 .212-.082c-1.283.022-2.324.312-2.353.36-4.257 2.919-1.43 5.73-1.357 5.95 2.702 2.855 5.36-.193 5.428-.26.899-.066.458.742.452.777-2.557 2.82-6.313.031-6.332 0-2.975-4.21 1.236-7.131 1.357-6.984 3.657-2.307 11.822 1.378 11.759 1.552l.386.169c3.135 1.208 8.906 3.638 11.507 4.71 2.493.776 3.94.808 3.94.808a2.23 2.23 0 0 1-.115.08c1.238-.034 2.228-.311 2.256-.358z"/><clipPath id="2dwgb"><use fill="#fff" xlink:href="#2dwga"/></clipPath></defs><g><g transform="translate(-994 -282)"><use fill="#121920" xlink:href="#2dwga"/><use fill="#fff" fill-opacity="0" stroke-dasharray="0 0" stroke-miterlimit="50" stroke-width="0" clip-path="url(&quot;#2dwgb&quot;)" xlink:href="#2dwga"/></g></g></svg>