<svg xmlns="http://www.w3.org/2000/svg" xmlns:xlink="http://www.w3.org/1999/xlink" width="51" height="50" viewBox="0 0 51 50"><defs><path id="6ti8a" d="M744.038 6620.476v23.048c0 7.442-6.063 13.477-13.538 13.477h-23.153c-7.476 0-13.538-6.035-13.538-13.477v-23.048c0-7.441 6.063-13.477 13.538-13.477H730.5c7.475 0 13.538 6.036 13.538 13.477zm-10.006 3.145a11.61 11.61 0 0 1-3.287.898 5.731 5.731 0 0 0 2.511-3.144 11.386 11.386 0 0 1-3.63 1.377 5.728 5.728 0 0 0-4.17-1.797c-3.158 0-5.72 2.549-5.72 5.693 0 .45.049.88.147 1.299a16.23 16.23 0 0 1-11.784-5.947 5.677 5.677 0 0 0 1.755 7.598 5.795 5.795 0 0 1-2.605-.713v.068c0 2.754 1.987 5.059 4.596 5.576-.48.128-.966.196-1.496.196-.373 0-.726-.04-1.08-.108a5.726 5.726 0 0 0 5.338 3.955 11.514 11.514 0 0 1-7.103 2.432c-.461 0-.912-.029-1.364-.078a16.264 16.264 0 0 0 8.761 2.559c10.517 0 16.266-8.672 16.266-16.192l-.02-.733a10.982 10.982 0 0 0 2.885-2.939z"/></defs><g><g transform="translate(-693 -6607)"><use fill="#fff" xlink:href="#6ti8a"/></g></g></svg>