<svg xmlns="http://www.w3.org/2000/svg" xmlns:xlink="http://www.w3.org/1999/xlink" width="60" height="56" viewBox="0 0 60 56"><defs><path id="k8lha" d="M988.452 3775.07c-1.244 5.251-4.119 10.025-8.31 13.808l-21.273 18.894-20.912-18.895c-4.192-3.782-7.067-8.557-8.311-13.807-.864-3.64-.58-5.873-.51-6.297.874-9.601 7.702-16.568 16.244-16.568 5.6 0 10.598 2.988 13.503 7.938 2.933-4.887 8.144-7.937 13.835-7.937 8.543 0 15.37 6.967 16.246 16.569.068.424.352 2.656-.512 6.295zm-1.768-5.936c-.766-8.522-6.633-14.628-13.965-14.628-5.539 0-10.554 3.39-12.778 8.636l-1.063 2.509-1.064-2.51c-2.26-5.327-7.023-8.637-12.434-8.637-7.333 0-13.2 6.107-13.95 14.519l-.017.116c-.001.013-.337 1.958.48 5.403 1.137 4.795 3.77 9.163 7.615 12.632l19.375 17.506 19.714-17.51c3.838-3.462 6.472-7.831 7.607-12.626.818-3.445.482-5.392.48-5.41zm-38.025-8.793c0 .635-.516 1.15-1.154 1.15-5.092 0-9.236 4.124-9.236 9.194 0 .635-.516 1.15-1.154 1.15a1.151 1.151 0 0 1-1.155-1.15c0-6.338 5.18-11.494 11.545-11.494.637 0 1.154.514 1.154 1.15z"/></defs><g><g transform="translate(-929 -3752)"><use fill="#7fcdc7" xlink:href="#k8lha"/></g></g></svg>